<svg width="46" height="44" viewBox="0 0 46 44" fill="none" xmlns="http://www.w3.org/2000/svg">
<path d="M22.6771 0C10.1545 0 0 10.0989 0 22.557C0 32.5232 6.49768 40.9786 15.508 43.9612C16.6413 44.17 17.0574 43.4719 17.0574 42.8761C17.0574 42.3382 17.0364 40.5613 17.0266 38.6765C10.7178 40.041 9.38658 36.015 9.38658 36.015C8.35502 33.4078 6.8687 32.7145 6.8687 32.7145C4.81121 31.3145 7.02379 31.3432 7.02379 31.3432C9.30097 31.5024 10.5 33.6678 10.5 33.6678C12.5226 37.1162 15.805 36.1193 17.0991 35.5429C17.3026 34.085 17.8903 33.0899 18.5388 32.5266C13.5019 31.9562 8.20707 30.0221 8.20707 21.3789C8.20707 18.9161 9.09293 16.9039 10.5436 15.3242C10.3081 14.7561 9.53191 12.4618 10.7633 9.35479C10.7633 9.35479 12.6675 8.74854 17.0011 11.667C18.81 11.1672 20.7499 10.9165 22.6771 10.9079C24.6043 10.9165 26.5458 11.1672 28.358 11.667C32.6863 8.74854 34.588 9.35479 34.588 9.35479C35.8223 12.4618 35.0457 14.7561 34.8103 15.3242C36.2643 16.9039 37.1442 18.9161 37.1442 21.3789C37.1442 30.0426 31.8391 31.9502 26.7895 32.5087C27.6029 33.2087 28.3276 34.5814 28.3276 36.6859C28.3276 39.7041 28.3013 42.1332 28.3013 42.8761C28.3013 43.4764 28.7095 44.1797 29.859 43.9582C38.8644 40.9722 45.3538 32.5199 45.3538 22.557C45.3538 10.0989 35.2008 0 22.6771 0ZM8.49332 32.1329C8.44337 32.245 8.26612 32.2786 8.10465 32.2016C7.94017 32.128 7.84779 31.9753 7.90112 31.8628C7.94993 31.7474 8.12756 31.7153 8.29166 31.7926C8.45651 31.8662 8.5504 32.0205 8.49332 32.1329ZM9.60878 33.1229C9.50063 33.2227 9.28921 33.1763 9.14576 33.0187C8.99743 32.8615 8.96964 32.6512 9.07929 32.5499C9.19082 32.4502 9.39586 32.4969 9.54456 32.6541C9.69289 32.8133 9.72181 33.0221 9.60878 33.1229ZM10.374 34.3897C10.2351 34.4856 10.0079 34.3956 9.86745 34.195C9.7285 33.9945 9.7285 33.7539 9.87045 33.6575C10.0113 33.5612 10.2351 33.6478 10.3774 33.8469C10.516 34.0509 10.516 34.2914 10.374 34.3897ZM11.6682 35.8567C11.5439 35.993 11.2792 35.9564 11.0854 35.7704C10.8871 35.5885 10.8319 35.3304 10.9566 35.194C11.0824 35.0573 11.3487 35.0958 11.5439 35.2803C11.7407 35.4619 11.8008 35.7218 11.6682 35.8567ZM13.3409 36.352C13.286 36.5286 13.031 36.6089 12.7742 36.5339C12.5177 36.4565 12.3498 36.2496 12.4017 36.0711C12.455 35.8933 12.7111 35.8096 12.9698 35.8899C13.2259 35.9668 13.3942 36.1723 13.3409 36.352ZM15.2444 36.562C15.2508 36.748 15.033 36.9023 14.7633 36.9057C14.4922 36.9117 14.2729 36.7611 14.2699 36.5781C14.2699 36.3902 14.4828 36.2374 14.7539 36.2329C15.0236 36.2277 15.2444 36.3771 15.2444 36.562ZM17.1144 36.4907C17.1467 36.6723 16.9593 36.8587 16.6915 36.9083C16.4283 36.9561 16.1846 36.8441 16.1512 36.664C16.1185 36.478 16.3092 36.2916 16.5721 36.2434C16.8402 36.1971 17.0802 36.3062 17.1144 36.4907Z" fill="#979797" fill-opacity="0.63"/>
</svg>
